<?xml version="1.0" encoding="UTF-8"?>
<svg width="26px" height="25px" viewBox="0 0 26 25" version="1.1" xmlns="http://www.w3.org/2000/svg" xmlns:xlink="http://www.w3.org/1999/xlink">
    <!-- Generator: sketchtool 64 (101010) - https://sketch.com -->
    <title>DCAAC7D4-EF12-4609-A3FE-79C77D0B2150</title>
    <desc>Created with sketchtool.</desc>
    <g id="⬆️✅-Cuenta" stroke="none" stroke-width="1" fill="none" fill-rule="evenodd">
        <g id="Upload-photo-2---Drag-and-drop" transform="translate(-553.000000, -679.000000)" fill="#FFFFFF">
            <g id="03-Module/Upload/Hover-drag&amp;drop" transform="translate(24.000000, 95.000000)">
                <g id="Group-4" transform="translate(512.509091, 568.865854)">
                    <g id="01-Fragment/icon/upload" transform="translate(16.872727, 16.024390)">
                        <path d="M20.4054545,10.0553049 C19.6883636,6.60004573 16.4930909,4.00609756 12.6545455,4.00609756 C9.60690909,4.00609756 6.96,5.64859756 5.64181818,8.0522561 C2.46763636,8.3727439 0,10.9266311 0,14.0213415 C0,17.3363872 2.83672727,20.0304878 6.32727273,20.0304878 L20.0363636,20.0304878 C22.9469091,20.0304878 25.3090909,17.7870732 25.3090909,15.0228659 C25.3090909,12.3788415 23.1472727,10.2355793 20.4054545,10.0553049 Z M20.0363636,18.027439 L6.32727273,18.027439 C3.99672727,18.027439 2.10909091,16.2347104 2.10909091,14.0213415 C2.10909091,11.9682165 3.72254545,10.2556098 5.86327273,10.0452896 L6.99163636,9.93512195 L7.51890909,8.98367378 C8.52072727,7.15088415 10.4821818,6.00914634 12.6545455,6.00914634 C15.4174545,6.00914634 17.8007273,7.87198171 18.3385455,10.4458994 L18.6549091,11.948186 L20.2683636,12.0583537 C21.9134545,12.1585061 23.2,13.470503 23.2,15.0228659 C23.2,16.6753811 21.7763636,18.027439 20.0363636,18.027439 Z M8.43636364,13.0198171 L11.1254545,13.0198171 L11.1254545,16.0243902 L14.1836364,16.0243902 L14.1836364,13.0198171 L16.8727273,13.0198171 L12.6545455,9.01371951 L8.43636364,13.0198171 Z" id="Shape"></path>
                    </g>
                </g>
            </g>
        </g>
    </g>
</svg>