<svg xmlns="http://www.w3.org/2000/svg" width="28" height="28" viewBox="0 0 28 28">
    <g fill="none" fill-rule="evenodd">
        <path fill="#0277FF" fill-rule="nonzero" d="M16 2.667C8.64 2.667 2.667 8.64 2.667 16S8.64 29.333 16 29.333 29.333 23.36 29.333 16 23.36 2.667 16 2.667zm0 4c2.213 0 4 1.786 4 4 0 2.213-1.787 4-4 4s-4-1.787-4-4c0-2.214 1.787-4 4-4zM16 25.6c-3.333 0-6.28-1.707-8-4.293.04-2.654 5.333-4.107 8-4.107 2.653 0 7.96 1.453 8 4.107-1.72 2.586-4.667 4.293-8 4.293z" transform="translate(-2 -2)"/>
        <path d="M0 0L32 0 32 32 0 32z" transform="translate(-2 -2)"/>
    </g>
</svg>
