<?xml version="1.0" encoding="utf-8"?>
<!-- Generator: Adobe Illustrator 24.0.0, SVG Export Plug-In . SVG Version: 6.00 Build 0)  -->
<svg version="1.1" id="Capa_1" xmlns="http://www.w3.org/2000/svg" xmlns:xlink="http://www.w3.org/1999/xlink" x="0px" y="0px"
	 viewBox="0 0 432 86" style="enable-background:new 0 0 432 86;" xml:space="preserve">
<style type="text/css">
	.st0{clip-path:url(#SVGID_2_);fill:#0277FF;}
	.st1{clip-path:url(#SVGID_4_);}
	.st2{clip-path:url(#SVGID_6_);}
</style>
<g>
	<defs>
		<path id="SVGID_1_" d="M23,0c0.8,0,1.5,0.7,1.5,1.5v20.8c0,1-0.4,2-1.2,2.7l-10,9.2c-0.6,0.5-1.4,0.5-2,0L1.2,25
			C0.4,24.3,0,23.3,0,22.3V1.5C0,0.7,0.7,0,1.5,0H23z M54.5,0C55.3,0,56,0.7,56,1.5v20.7c0,1.1-0.5,2.1-1.2,2.8l-10.4,9.3
			c-0.6,0.5-1.4,0.5-2,0L32,25c-0.8-0.7-1.2-1.7-1.2-2.8V1.5c0-0.8,0.7-1.5,1.5-1.5H54.5z M53.3,43.4c2.1,2,2.2,5.2,1.4,7.4
			c-1.5,4-5.9,7.1-9.4,9.6c-0.4,0.3-0.8,0.6-1.2,0.9c-0.1,0.1-0.3,0.2-0.4,0.2l0,0l0,0c-0.1,0-0.2,0-0.3,0c0,0,0,0,0,0
			c-0.1,0-0.2,0-0.2,0c0,0,0,0-0.1,0c-0.1,0-0.2,0-0.2-0.1c0,0,0,0,0,0c-0.1,0-0.1-0.1-0.2-0.1c-0.4-0.3-0.8-0.6-1.2-0.9
			c-3.5-2.5-7.9-5.6-9.4-9.6c-0.8-2.2-0.7-5.4,1.4-7.4c1.7-1.6,3.5-2.4,5.3-2.2c2,0.2,3.6,1.5,4.6,2.4c1-1,2.6-2.2,4.6-2.4
			C49.8,41.1,51.6,41.8,53.3,43.4z M12.2,39.7c5.9,0,10.8,4.9,10.8,10.9s-4.8,10.9-10.8,10.9S1.5,56.7,1.5,50.7S6.3,39.7,12.2,39.7z
			"/>
	</defs>
	<clipPath id="SVGID_2_">
		<use xlink:href="#SVGID_1_"  style="overflow:visible;"/>
	</clipPath>
	<rect x="-10" y="-10" class="st0" width="76" height="81.6"/>
</g>
<g>
	<defs>
		<path id="SVGID_3_" d="M414.7,39.7c-3.9,0-7-3-7-7.6c0-4.6,3-7.6,7-7.6c4,0,7,3,7,7.6C421.7,36.7,418.7,39.7,414.7,39.7z
			 M412.2,49.5c4.2,0,7.3-1.8,9.5-4.4v3.6H432V2h-10.3v17.1c-2.1-2.7-5.3-4.5-9.5-4.5c-8.3,0-15,7.1-15,17.5
			C397.2,42.3,403.7,49.5,412.2,49.5z M385.4,48.7V34.3c0-7.6,4.7-9,9.5-9c1,0,1.4,0.1,2.1,0.1V14.7c-0.5-0.1-1.1-0.2-1.9-0.2
			c-4.2,0-7.6,1.9-9.7,5.9v-5.2h-10.3v33.4H385.4z M355.1,39.7c-3.9,0-7-3-7-7.6c0-4.6,3-7.6,7-7.6c4,0,7,3,7,7.6
			C362.2,36.7,359.1,39.7,355.1,39.7z M352.7,49.5c4.2,0,7.3-1.8,9.4-4.4v3.6h10.3l0.1-33.4h-10.3v3.8c-2.1-2.7-5.3-4.5-9.5-4.5
			c-8.3,0-15,7.1-15,17.5C337.7,42.3,344.2,49.5,352.7,49.5z M315.9,49.5c10.4,0,18.4-6.6,20.7-15.8h-11c-1.7,3.7-5.2,5.9-9.6,5.9
			c-7,0-11.6-5.1-11.6-12.2s4.5-12.2,11.6-12.2c4.5,0,7.9,2.2,9.6,5.9h11c-2.3-9.2-10.2-15.8-20.7-15.8c-12.7,0-22,9.5-22,22
			S303.1,49.5,315.9,49.5z M274.7,39.7c-3.9,0-7-3-7-7.6c0-4.6,3-7.6,7-7.6c4,0,7,3,7,7.6C281.7,36.7,278.7,39.7,274.7,39.7z
			 M274.7,49.5c9.8,0,17.5-7.4,17.5-17.5s-7.8-17.5-17.5-17.5c-9.6,0-17.5,7.4-17.5,17.5C257.2,42,264.9,49.5,274.7,49.5z
			 M233.8,48.7V31c0-4.6,2.1-6.6,6.1-6.6c4.2,0,5.3,2.1,5.3,5.8v18.6h10.3V27.8c0-8.1-4.5-13.3-12.1-13.3c-4.1,0-7.2,1.6-9.6,4.5
			v-3.8h-10.3v33.4H233.8z M200.9,49.5c4.1,0,7.2-1.6,9.6-4.6v3.8h10.3V15.3h-10.3v17.7c0,4.6-2.1,6.6-6,6.6c-4.1,0-5.2-2.1-5.2-5.8
			V15.3H189v20.9C189,44.3,193.6,49.5,200.9,49.5z M144.8,48.7V31c0-4.6,2.1-6.6,5.8-6.6c3.9,0,5,2.1,5,5.8v18.6h10.3V31
			c0-4.6,2.1-6.6,5.8-6.6c3.9,0,5,2.1,5,5.8v18.6H187V27.8c0-8.1-4.5-13.3-11.7-13.3c-4.6,0-8.5,2.1-11,5.8c-1.9-3.7-5.5-5.8-10-5.8
			c-3.9,0-7,1.6-9.5,4.5v-3.8h-10.3v33.4H144.8z M110.5,48.7V31c0-4.6,2.1-6.6,6.1-6.6c4.2,0,5.3,2.1,5.3,5.8v18.6h10.3V27.8
			c0-8.1-4.5-13.3-12.1-13.3c-4.1,0-7.2,1.6-9.6,4.5v-3.8h-10.3v33.4H110.5z M96.3,48.7V6.2H86v42.5H96.3z"/>
	</defs>
	<clipPath id="SVGID_4_">
		<use xlink:href="#SVGID_3_"  style="overflow:visible;"/>
	</clipPath>
	<rect x="76" y="-8" class="st1" width="366" height="67.5"/>
</g>
<g>
	<defs>
		<path id="SVGID_5_" d="M252.6,80.2c2.5,0,3.8-1.3,3.8-3.2c0-2.2-1.5-2.7-3.7-3.1c-1.9-0.3-2.4-0.7-2.4-1.7c0-0.9,0.8-1.5,2-1.5
			c1.3,0,2,0.5,2.2,1.6h1.6c-0.3-2.3-1.9-3-3.8-3c-1.6,0-3.5,1-3.5,2.9c0,1.8,0.9,2.6,3.6,3.1c1.6,0.3,2.4,0.7,2.4,1.8
			c0,1.1-0.7,1.7-2.3,1.7c-1.7,0-2.3-0.8-2.5-2h-1.6C248.6,78.9,250.1,80.2,252.6,80.2z M241.3,78.9c-1.5,0-2-0.7-2-1.8
			c0-1.5,1.5-2.1,3.6-2.1h1.4v1.3C244.4,78,243.1,78.9,241.3,78.9z M241.1,80.2c1.5,0,2.5-0.5,3.3-1.5V80h1.7v-6.9
			c0-2.9-1.8-3.7-3.8-3.7c-2,0-3.9,0.9-4.1,3.3h1.7c0.2-1.3,1-1.9,2.4-1.9c1.6,0,2.2,0.7,2.2,2.4v0.8h-1.5c-2.7,0-5.2,0.8-5.2,3.2
			C237.7,79.2,239.2,80.2,241.1,80.2z M234.3,73.8h-6.1c0.3-1.9,1.4-3,3.1-3C233,70.7,234.1,71.6,234.3,73.8z M231.4,80.2
			c2.4,0,4.1-1.1,4.5-3.2h-1.7c-0.2,1.2-1.2,1.8-2.8,1.8c-2.1,0-3.3-1.3-3.4-3.7h7.9v-0.5c0-3.7-2.3-5.2-4.7-5.2
			c-2.9,0-4.9,2.2-4.9,5.4v0.2C226.4,78.1,228.5,80.2,231.4,80.2z M218.7,78.8c-1.8,0-3.2-1.3-3.2-3.9v-0.2c0-2.5,1.2-4,3.3-4
			c2,0,3.3,1.3,3.3,3.9v0.2C222.2,77.5,220.7,78.8,218.7,78.8z M218.6,80.2c1.5,0,3-1,3.6-2V80h1.7V64.5h-1.7v6.7
			c-0.6-1-1.7-1.9-3.4-1.9c-2.9,0-4.9,2.3-4.9,5.5V75C213.8,78.2,215.8,80.2,218.6,80.2z M211.2,80V69.5h-1.7V80H211.2z M210.4,67.4
			c0.6,0,1.1-0.5,1.1-1.1s-0.5-1.1-1.1-1.1s-1.1,0.5-1.1,1.1S209.8,67.4,210.4,67.4z M200,73.8h-6.1c0.3-1.9,1.4-3,3.1-3
			C198.7,70.7,199.8,71.6,200,73.8z M197.1,80.2c2.4,0,4.1-1.1,4.5-3.2h-1.7c-0.2,1.2-1.2,1.8-2.8,1.8c-2.1,0-3.3-1.3-3.4-3.7h7.9
			v-0.5c0-3.7-2.3-5.2-4.7-5.2c-2.9,0-4.9,2.2-4.9,5.4v0.2C192.1,78.1,194.2,80.2,197.1,80.2z M184.4,78.8c-1.8,0-3.2-1.3-3.2-3.9
			v-0.2c0-2.5,1.2-4,3.3-4c2,0,3.3,1.3,3.3,3.9v0.2C187.9,77.5,186.4,78.8,184.4,78.8z M184.3,80.2c1.5,0,3-1,3.6-2V80h1.7V64.5
			h-1.7v6.7c-0.6-1-1.7-1.9-3.4-1.9c-2.9,0-4.9,2.3-4.9,5.5V75C179.5,78.2,181.5,80.2,184.3,80.2z M170.8,73.8h-6.1
			c0.3-1.9,1.4-3,3.1-3C169.5,70.7,170.6,71.6,170.8,73.8z M167.9,80.2c2.4,0,4.1-1.1,4.5-3.2h-1.7c-0.2,1.2-1.2,1.8-2.8,1.8
			c-2.1,0-3.3-1.3-3.4-3.7h7.9v-0.5c0-3.7-2.3-5.2-4.7-5.2c-2.9,0-4.9,2.2-4.9,5.4v0.2C162.9,78.1,165,80.2,167.9,80.2z M157.1,83.8
			c2.3-0.1,3.2-1.2,3.2-3.2V69.5h-1.7v11.3c0,0.9-0.4,1.5-1.5,1.6V83.8z M159.4,67.4c0.6,0,1.1-0.5,1.1-1.1s-0.5-1.1-1.1-1.1
			c-0.6,0-1.1,0.5-1.1,1.1S158.8,67.4,159.4,67.4z M150.5,78.9c-1.5,0-2-0.7-2-1.8c0-1.5,1.5-2.1,3.6-2.1h1.4v1.3
			C153.6,78,152.3,78.9,150.5,78.9z M150.4,80.2c1.5,0,2.5-0.5,3.3-1.5V80h1.7v-6.9c0-2.9-1.8-3.7-3.8-3.7c-2,0-3.9,0.9-4.1,3.3h1.7
			c0.2-1.3,1-1.9,2.4-1.9c1.6,0,2.2,0.7,2.2,2.4v0.8h-1.5c-2.7,0-5.2,0.8-5.2,3.2C146.9,79.2,148.4,80.2,150.4,80.2z M141.9,80v-5.7
			c0-2.6,1.3-3.2,3.4-3.3v-1.6c-1.9,0.1-2.8,0.9-3.4,2.1v-1.9h-1.7V80H141.9z M132.2,78.9c-1.5,0-2-0.7-2-1.8c0-1.5,1.5-2.1,3.6-2.1
			h1.4v1.3C135.3,78,134,78.9,132.2,78.9z M132.1,80.2c1.5,0,2.5-0.5,3.3-1.5V80h1.7v-6.9c0-2.9-1.8-3.7-3.8-3.7
			c-2,0-3.9,0.9-4.1,3.3h1.7c0.2-1.3,1-1.9,2.4-1.9c1.6,0,2.2,0.7,2.2,2.4v0.8h-1.5c-2.7,0-5.2,0.8-5.2,3.2
			C128.6,79.2,130.1,80.2,132.1,80.2z M120.4,80.2c3.7,0,6.2-2.2,6.2-6.3v-1.1h-5.9v1.4h4.2c-0.1,2.5-1.4,4.6-4.5,4.6
			c-3.4,0-5.1-2.3-5.1-5.9v-0.2c0-3.5,1.9-5.9,5.2-5.9c2.1,0,3.6,0.9,4,3.2h1.7c-0.4-3.2-3-4.5-5.8-4.5c-4.1,0-6.9,3.1-6.9,7.3v0.2
			C113.5,77.1,116,80.2,120.4,80.2z M100.8,83.6l5.8-14.1h-1.7L102,77l-3.2-7.5H97l4.1,9.4l-2,4.7H100.8z M90.7,78.8
			c-2,0-3.4-1.3-3.4-3.9v-0.2c0-2.7,1.5-4,3.4-4c1.8,0,3.2,1.3,3.2,4v0.2C93.9,77.4,92.8,78.8,90.7,78.8z M90.9,80.2
			c2.9,0,4.8-2.2,4.8-5.4v-0.2c0-3.3-2-5.3-4.8-5.3c-1.5,0-2.9,0.9-3.5,1.9v-6.8h-1.7V80h1.7v-1.7C87.9,79.3,89.2,80.2,90.9,80.2z"
			/>
	</defs>
	<clipPath id="SVGID_6_">
		<use xlink:href="#SVGID_5_"  style="overflow:visible;"/>
	</clipPath>
	<rect x="75.7" y="54.5" class="st2" width="190.7" height="39.3"/>
</g>
</svg>
