<svg xmlns="http://www.w3.org/2000/svg" width="174" height="25" viewBox="0 0 174 25">
    <g fill="none" fill-rule="evenodd">
        <path fill="#0277FF" d="M4.911 16.008c2.384 0 4.316 1.977 4.316 4.415 0 2.439-1.932 4.416-4.316 4.416-2.383 0-4.316-1.977-4.316-4.416 0-2.438 1.933-4.415 4.316-4.415zm16.447 1.495c.83.813.873 2.08.547 2.975-.594 1.622-2.346 2.872-3.755 3.876-.171.123-.338.241-.496.356-.052.038-.11.063-.168.078l-.019.005c-.035.007-.07.012-.105.012h-.005c-.032 0-.064-.005-.096-.011l-.027-.007c-.032-.008-.063-.02-.093-.034l-.01-.006c-.022-.01-.042-.023-.062-.037-.158-.116-.326-.235-.498-.358-1.408-1.004-3.16-2.253-3.752-3.875-.327-.893-.285-2.16.546-2.974.669-.655 1.39-.949 2.145-.875.814.081 1.46.587 1.852.982.39-.395 1.038-.9 1.852-.982.754-.074 1.476.22 2.144.875zM21.925 0c.29 0 .527.236.527.527v8.518c0 .375-.16.731-.439.981l-4.27 3.826c-.2.18-.503.18-.703 0l-4.27-3.826c-.28-.25-.439-.606-.439-.98V.525c0-.29.236-.526.527-.526zM9.295 0c.292 0 .528.236.528.527v8.529c0 .368-.154.719-.424.968l-4.13 3.812c-.202.186-.513.186-.715 0l-4.13-3.812c-.27-.25-.424-.6-.424-.968V.526C0 .237.236 0 .527 0z"/>
        <path fill="#000" fill-rule="nonzero" d="M38.613 19.637V2.518h-4.134v17.119h4.134zm5.673 0v-7.141c0-1.859.827-2.666 2.456-2.666 1.678 0 2.116.856 2.116 2.324v7.483h4.133v-8.413c0-3.277-1.823-5.355-4.838-5.355-1.654 0-2.894.635-3.867 1.834V6.187h-4.133v13.45h4.133zm13.771 0v-7.141c0-1.859.827-2.666 2.334-2.666 1.556 0 1.994.856 1.994 2.324v7.483h4.134v-7.141c0-1.859.826-2.666 2.334-2.666 1.556 0 1.994.856 1.994 2.324v7.483h4.133v-8.413c0-3.277-1.823-5.355-4.692-5.355-1.848 0-3.405.856-4.426 2.347-.778-1.491-2.188-2.347-4.012-2.347-1.58 0-2.82.635-3.793 1.834V6.187h-4.134v13.45h4.134zm22.5.318c1.629 0 2.869-.636 3.842-1.859v1.54h4.133V6.187H84.4v7.141c0 1.859-.827 2.666-2.408 2.666-1.629 0-2.066-.856-2.066-2.323V6.187H75.79v8.412c0 3.277 1.824 5.356 4.766 5.356zm13.162-.318v-7.141c0-1.859.827-2.666 2.456-2.666 1.678 0 2.116.856 2.116 2.324v7.483h4.133v-8.413c0-3.277-1.823-5.355-4.838-5.355-1.654 0-2.894.635-3.867 1.834V6.187h-4.133v13.45h4.133zm16.397.318c3.915 0 7.003-2.984 7.003-7.043 0-4.06-3.137-7.043-7.003-7.043s-7.003 2.983-7.003 7.043c0 4.035 3.088 7.043 7.003 7.043zm0-3.962c-1.58 0-2.82-1.198-2.82-3.081 0-1.859 1.215-3.082 2.82-3.082 1.605 0 2.82 1.223 2.82 3.082 0 1.883-1.215 3.081-2.82 3.081zm16.518 3.962c4.183 0 7.368-2.641 8.292-6.359H130.5c-.68 1.492-2.066 2.397-3.866 2.397-2.82 0-4.644-2.054-4.644-4.915 0-2.862 1.824-4.916 4.644-4.916 1.8 0 3.186.905 3.866 2.397h4.426c-.924-3.717-4.11-6.359-8.292-6.359-5.106 0-8.826 3.84-8.826 8.878 0 5.037 3.72 8.877 8.826 8.877zm14.768 0c1.702 0 2.918-.71 3.769-1.761v1.443h4.133l.025-13.45h-4.134v1.516c-.851-1.1-2.115-1.834-3.817-1.834-3.332 0-6.006 2.86-6.006 7.043 0 4.157 2.626 7.043 6.03 7.043zm.972-3.962c-1.58 0-2.82-1.198-2.82-3.081 0-1.859 1.216-3.082 2.82-3.082 1.605 0 2.821 1.223 2.821 3.082 0 1.883-1.216 3.081-2.82 3.081zm12.142 3.644v-5.82c0-3.057 1.872-3.644 3.817-3.644.39 0 .56.024.827.049v-4.28c-.194-.049-.438-.073-.754-.073-1.702 0-3.063.758-3.89 2.396V6.187h-4.134v13.45h4.134zm10.755.318c1.702 0 2.918-.71 3.794-1.761v1.443h4.133V.807h-4.133v6.896c-.851-1.1-2.116-1.834-3.818-1.834-3.331 0-6.006 2.86-6.006 7.043 0 4.157 2.626 7.043 6.03 7.043zm.973-3.962c-1.58 0-2.82-1.198-2.82-3.081 0-1.859 1.215-3.082 2.82-3.082 1.605 0 2.82 1.223 2.82 3.082 0 1.883-1.215 3.081-2.82 3.081z"/>
    </g>
</svg>
