<svg xmlns="http://www.w3.org/2000/svg" width="50" height="50" viewBox="0 0 50 50">
    <g fill="none" fill-rule="evenodd">
        <circle cx="25" cy="25" r="25" fill="#0277FF"/>
        <path fill="#FFF" d="M19.375 28.179c2.123 0 3.845 1.75 3.845 3.91S21.498 36 19.375 36s-3.845-1.75-3.845-3.91 1.722-3.911 3.845-3.911zm14.651 1.323c.74.72.778 1.843.487 2.635-.529 1.437-2.09 2.544-3.345 3.434l-.442.315c-.046.034-.097.056-.15.07l-.016.003c-.031.007-.062.011-.094.011h-.004c-.03 0-.058-.004-.086-.01l-.024-.006c-.028-.007-.056-.017-.083-.03l-.01-.005c-.018-.01-.036-.02-.053-.033-.142-.103-.29-.208-.445-.317-1.254-.89-2.814-1.996-3.341-3.432-.292-.791-.255-1.913.486-2.635.595-.58 1.238-.84 1.91-.774.725.072 1.302.52 1.65.87.348-.35.925-.798 1.65-.87.672-.066 1.315.194 1.91.774zM34.401 14c.33 0 .599.268.599.599v7.262c0 .427-.182.834-.501 1.118l-3.608 3.214c-.227.202-.57.202-.797 0l-3.608-3.214c-.319-.284-.501-.69-.501-1.118V14.6c0-.33.268-.599.599-.599zm-11.25 0c.33 0 .599.268.599.599v7.275c0 .42-.176.82-.485 1.103l-3.485 3.198c-.23.21-.58.21-.81 0l-3.485-3.198c-.31-.284-.485-.684-.485-1.103v-7.275c0-.33.268-.599.599-.599z"/>
    </g>
</svg>
