<svg xmlns="http://www.w3.org/2000/svg" width="24" height="24" viewBox="0 0 24 24">
    <g fill="none" fill-rule="evenodd">
        <path d="M0 0H24V24H0z"/>
        <path fill="#93A4AD" d="M13.41.001c2.01.005 2.471.023 3.538.071 1.277.058 2.15.261 2.912.558.79.307 1.459.717 2.126 1.384.667.667 1.077 1.336 1.384 2.126.297.763.5 1.635.558 2.912C23.986 8.332 24 8.741 24 12v.317c-.001 2.97-.016 3.393-.072 4.63-.058 1.278-.261 2.15-.558 2.913-.307.79-.717 1.459-1.384 2.126-.667.667-1.336 1.077-2.126 1.384-.763.297-1.635.5-2.912.558-1.28.058-1.689.072-4.948.072h-.317c-2.97-.001-3.393-.016-4.63-.072-1.278-.058-2.15-.261-2.913-.558-.79-.307-1.459-.717-2.126-1.384C1.347 21.319.937 20.65.63 19.86c-.297-.763-.5-1.635-.558-2.912-.048-1.067-.066-1.529-.07-3.539v-2.818c.004-2.01.022-2.472.07-3.539C.13 5.775.333 4.902.63 4.14c.307-.79.717-1.459 1.384-2.126C2.681 1.347 3.35.937 4.14.63 4.903.333 5.775.13 7.052.072 8.12.024 8.581.006 10.591.002zm-.53 2.162h-1.76c-2.409.002-2.83.017-3.969.07-1.17.052-1.805.248-2.228.412-.56.218-.96.478-1.38.898-.42.42-.68.82-.898 1.38-.164.423-.36 1.058-.413 2.228-.052 1.139-.067 1.56-.07 3.969v1.76c.003 2.409.018 2.83.07 3.969.053 1.17.249 1.805.413 2.228.218.56.478.96.898 1.38.42.42.82.68 1.38.898.423.164 1.058.36 2.228.413 1.265.058 1.645.07 4.849.07s3.584-.012 4.849-.07c1.17-.053 1.805-.249 2.228-.413.56-.218.96-.478 1.38-.898.42-.42.68-.82.898-1.38.164-.423.36-1.058.413-2.228.058-1.265.07-1.645.07-4.849s-.012-3.584-.07-4.849c-.053-1.17-.249-1.805-.413-2.228-.218-.56-.478-.96-.898-1.38-.42-.42-.82-.68-1.38-.898-.423-.164-1.058-.36-2.228-.413-1.139-.052-1.56-.067-3.969-.07zM12 5.838c3.403 0 6.162 2.759 6.162 6.162S15.403 18.162 12 18.162 5.838 15.403 5.838 12 8.597 5.838 12 5.838zM12 8c-2.21 0-4 1.79-4 4s1.79 4 4 4 4-1.79 4-4-1.79-4-4-4zm6.406-3.846c.795 0 1.44.645 1.44 1.44 0 .796-.645 1.44-1.44 1.44-.796 0-1.44-.644-1.44-1.44 0-.795.644-1.44 1.44-1.44z"/>
    </g>
</svg>
